<svg width="24" height="24" viewBox="0 0 24 24" fill="none" xmlns="http://www.w3.org/2000/svg">
<mask id="path-1-inside-1_5983_36892" fill="white">
<path d="M10.2624 4.94948C10.4668 5.09849 10.5507 5.18664 10.6025 5.43685C10.5514 5.68385 10.4536 5.76409 10.2624 5.92422C10.0665 5.98109 10.0665 5.98109 9.84687 6.01179C8.50636 6.23549 7.22454 7.04564 6.42671 8.15303C5.70774 9.185 5.34153 10.3139 5.34356 11.5747C5.34366 11.6384 5.34375 11.7022 5.34385 11.7679C5.35204 12.2924 5.43338 12.7385 5.60801 13.2348C5.62547 13.2922 5.64292 13.3497 5.66091 13.409C6.12557 14.8557 7.19313 15.9027 8.50948 16.5854C8.7077 16.6831 8.90359 16.7621 9.11395 16.8291C9.16935 16.8473 9.22475 16.8654 9.28183 16.8841C10.3249 17.1661 11.5415 17.1239 12.5594 16.7682C12.625 16.7475 12.6907 16.7269 12.7582 16.7056C14.1706 16.219 15.1862 15.1784 15.8368 13.85C16.356 12.7494 16.4951 11.5472 16.2746 10.3508C16.1817 9.81054 16.1817 9.81054 16.3374 9.54903C16.5184 9.43958 16.6438 9.42627 16.8512 9.41933C17.0417 9.4797 17.1064 9.59701 17.2139 9.76225C17.7713 11.2527 17.311 13.0474 16.7038 14.4449C16.592 14.671 16.4609 14.8711 16.3074 15.0705C16.2343 15.1804 16.2343 15.1804 16.2636 15.3022C16.3377 15.5159 16.5098 15.6553 16.6672 15.8106C16.7048 15.8484 16.7423 15.8861 16.781 15.9251C16.9053 16.0499 17.0302 16.174 17.1551 16.2982C17.2415 16.3848 17.3278 16.4714 17.4141 16.5581C17.6416 16.7863 17.8695 17.0139 18.0976 17.2414C18.4626 17.6057 18.8269 17.9707 19.1911 18.3358C19.3185 18.4633 19.4461 18.5907 19.5738 18.718C19.6518 18.796 19.7299 18.874 19.8079 18.9521C19.8613 19.0052 19.8613 19.0052 19.9159 19.0594C20.2893 19.4336 20.2893 19.4336 20.3193 19.7419C20.3033 20.2095 19.9435 20.4876 19.6332 20.7978C19.4164 20.9981 19.2313 21.0048 18.9446 20.9986C18.6483 20.9486 18.4996 20.7616 18.3019 20.5453C18.2349 20.473 18.1678 20.4007 18.1007 20.3285C17.989 20.2079 17.8775 20.087 17.7666 19.9655C17.5523 19.7316 17.3343 19.5154 17.0907 19.3122C16.963 19.1968 16.8531 19.0743 16.7402 18.9442C16.3975 18.5572 16.0393 18.1863 15.6772 17.8177C15.6001 17.7391 15.5234 17.6601 15.447 17.5808C15.3355 17.465 15.223 17.3503 15.1103 17.2358C15.0592 17.1822 15.0592 17.1822 15.007 17.1276C14.9013 17.018 14.9013 17.018 14.7355 16.89C14.4991 16.9205 14.3245 17.0477 14.1235 17.1718C13.0685 17.8021 12.0008 18.0583 10.7838 18.059C10.714 18.0597 10.6442 18.0604 10.5722 18.0612C8.85245 18.0642 7.34041 17.2846 6.12181 16.0942C4.81396 14.7738 4.32293 13.0971 4.31934 11.2694C4.33614 9.77283 4.91958 8.42007 5.8498 7.26448C5.89133 7.2125 5.93287 7.16051 5.97566 7.10695C6.86057 6.05789 8.06786 5.39509 9.3784 5.05228C9.43771 5.03659 9.43771 5.03659 9.49821 5.02057C9.75754 4.95678 9.99601 4.92953 10.2624 4.94948Z"/>
<path d="M14.3124 3C14.4877 3.00906 14.5816 3.02489 14.7025 3.15682C14.8259 3.35185 14.9092 3.55984 14.9962 3.77294C15.1573 4.15364 15.3266 4.50043 15.5818 4.82764C15.617 4.87303 15.6522 4.91842 15.6885 4.96518C16.2295 5.61897 16.9469 6.04666 17.7352 6.33544C17.9392 6.41159 17.9392 6.41159 18.0601 6.53343C18.081 6.6978 18.092 6.7954 17.9909 6.93061C17.8428 7.04976 17.6953 7.09621 17.5161 7.15787C17.1136 7.30869 16.7772 7.50183 16.4281 7.75185C16.3771 7.78672 16.3261 7.82159 16.2736 7.85751C15.5104 8.41828 15.0422 9.29638 14.7353 10.1808C14.7154 10.2236 14.6956 10.2664 14.6751 10.3105C14.4975 10.3715 14.4975 10.3715 14.3124 10.3715C14.0953 10.1968 14.0297 9.95153 13.9346 9.69752C13.7661 9.26847 13.577 8.90275 13.2848 8.54383C13.2476 8.49647 13.2103 8.44912 13.1719 8.40033C12.6483 7.7677 11.8916 7.28105 11.1011 7.06578C10.9662 7.01223 10.8973 6.95122 10.8065 6.83804C10.7821 6.67415 10.773 6.57952 10.8719 6.44324C11.0358 6.31232 11.2205 6.25092 11.4147 6.17932C12.6494 5.69863 13.3992 4.8682 13.9497 3.67013C14.0142 3.52322 14.0781 3.37623 14.1396 3.22798C14.1915 3.12184 14.1915 3.12184 14.3124 3Z"/>
</mask>
<path d="M10.2624 4.94948C10.4668 5.09849 10.5507 5.18664 10.6025 5.43685C10.5514 5.68385 10.4536 5.76409 10.2624 5.92422C10.0665 5.98109 10.0665 5.98109 9.84687 6.01179C8.50636 6.23549 7.22454 7.04564 6.42671 8.15303C5.70774 9.185 5.34153 10.3139 5.34356 11.5747C5.34366 11.6384 5.34375 11.7022 5.34385 11.7679C5.35204 12.2924 5.43338 12.7385 5.60801 13.2348C5.62547 13.2922 5.64292 13.3497 5.66091 13.409C6.12557 14.8557 7.19313 15.9027 8.50948 16.5854C8.7077 16.6831 8.90359 16.7621 9.11395 16.8291C9.16935 16.8473 9.22475 16.8654 9.28183 16.8841C10.3249 17.1661 11.5415 17.1239 12.5594 16.7682C12.625 16.7475 12.6907 16.7269 12.7582 16.7056C14.1706 16.219 15.1862 15.1784 15.8368 13.85C16.356 12.7494 16.4951 11.5472 16.2746 10.3508C16.1817 9.81054 16.1817 9.81054 16.3374 9.54903C16.5184 9.43958 16.6438 9.42627 16.8512 9.41933C17.0417 9.4797 17.1064 9.59701 17.2139 9.76225C17.7713 11.2527 17.311 13.0474 16.7038 14.4449C16.592 14.671 16.4609 14.8711 16.3074 15.0705C16.2343 15.1804 16.2343 15.1804 16.2636 15.3022C16.3377 15.5159 16.5098 15.6553 16.6672 15.8106C16.7048 15.8484 16.7423 15.8861 16.781 15.9251C16.9053 16.0499 17.0302 16.174 17.1551 16.2982C17.2415 16.3848 17.3278 16.4714 17.4141 16.5581C17.6416 16.7863 17.8695 17.0139 18.0976 17.2414C18.4626 17.6057 18.8269 17.9707 19.1911 18.3358C19.3185 18.4633 19.4461 18.5907 19.5738 18.718C19.6518 18.796 19.7299 18.874 19.8079 18.9521C19.8613 19.0052 19.8613 19.0052 19.9159 19.0594C20.2893 19.4336 20.2893 19.4336 20.3193 19.7419C20.3033 20.2095 19.9435 20.4876 19.6332 20.7978C19.4164 20.9981 19.2313 21.0048 18.9446 20.9986C18.6483 20.9486 18.4996 20.7616 18.3019 20.5453C18.2349 20.473 18.1678 20.4007 18.1007 20.3285C17.989 20.2079 17.8775 20.087 17.7666 19.9655C17.5523 19.7316 17.3343 19.5154 17.0907 19.3122C16.963 19.1968 16.8531 19.0743 16.7402 18.9442C16.3975 18.5572 16.0393 18.1863 15.6772 17.8177C15.6001 17.7391 15.5234 17.6601 15.447 17.5808C15.3355 17.465 15.223 17.3503 15.1103 17.2358C15.0592 17.1822 15.0592 17.1822 15.007 17.1276C14.9013 17.018 14.9013 17.018 14.7355 16.89C14.4991 16.9205 14.3245 17.0477 14.1235 17.1718C13.0685 17.8021 12.0008 18.0583 10.7838 18.059C10.714 18.0597 10.6442 18.0604 10.5722 18.0612C8.85245 18.0642 7.34041 17.2846 6.12181 16.0942C4.81396 14.7738 4.32293 13.0971 4.31934 11.2694C4.33614 9.77283 4.91958 8.42007 5.8498 7.26448C5.89133 7.2125 5.93287 7.16051 5.97566 7.10695C6.86057 6.05789 8.06786 5.39509 9.3784 5.05228C9.43771 5.03659 9.43771 5.03659 9.49821 5.02057C9.75754 4.95678 9.99601 4.92953 10.2624 4.94948Z" fill="#050505"/>
<path d="M14.3124 3C14.4877 3.00906 14.5816 3.02489 14.7025 3.15682C14.8259 3.35185 14.9092 3.55984 14.9962 3.77294C15.1573 4.15364 15.3266 4.50043 15.5818 4.82764C15.617 4.87303 15.6522 4.91842 15.6885 4.96518C16.2295 5.61897 16.9469 6.04666 17.7352 6.33544C17.9392 6.41159 17.9392 6.41159 18.0601 6.53343C18.081 6.6978 18.092 6.7954 17.9909 6.93061C17.8428 7.04976 17.6953 7.09621 17.5161 7.15787C17.1136 7.30869 16.7772 7.50183 16.4281 7.75185C16.3771 7.78672 16.3261 7.82159 16.2736 7.85751C15.5104 8.41828 15.0422 9.29638 14.7353 10.1808C14.7154 10.2236 14.6956 10.2664 14.6751 10.3105C14.4975 10.3715 14.4975 10.3715 14.3124 10.3715C14.0953 10.1968 14.0297 9.95153 13.9346 9.69752C13.7661 9.26847 13.577 8.90275 13.2848 8.54383C13.2476 8.49647 13.2103 8.44912 13.1719 8.40033C12.6483 7.7677 11.8916 7.28105 11.1011 7.06578C10.9662 7.01223 10.8973 6.95122 10.8065 6.83804C10.7821 6.67415 10.773 6.57952 10.8719 6.44324C11.0358 6.31232 11.2205 6.25092 11.4147 6.17932C12.6494 5.69863 13.3992 4.8682 13.9497 3.67013C14.0142 3.52322 14.0781 3.37623 14.1396 3.22798C14.1915 3.12184 14.1915 3.12184 14.3124 3Z" fill="url(#paint0_linear_5983_36892)"/>
<path d="M14.3124 3C14.4877 3.00906 14.5816 3.02489 14.7025 3.15682C14.8259 3.35185 14.9092 3.55984 14.9962 3.77294C15.1573 4.15364 15.3266 4.50043 15.5818 4.82764C15.617 4.87303 15.6522 4.91842 15.6885 4.96518C16.2295 5.61897 16.9469 6.04666 17.7352 6.33544C17.9392 6.41159 17.9392 6.41159 18.0601 6.53343C18.081 6.6978 18.092 6.7954 17.9909 6.93061C17.8428 7.04976 17.6953 7.09621 17.5161 7.15787C17.1136 7.30869 16.7772 7.50183 16.4281 7.75185C16.3771 7.78672 16.3261 7.82159 16.2736 7.85751C15.5104 8.41828 15.0422 9.29638 14.7353 10.1808C14.7154 10.2236 14.6956 10.2664 14.6751 10.3105C14.4975 10.3715 14.4975 10.3715 14.3124 10.3715C14.0953 10.1968 14.0297 9.95153 13.9346 9.69752C13.7661 9.26847 13.577 8.90275 13.2848 8.54383C13.2476 8.49647 13.2103 8.44912 13.1719 8.40033C12.6483 7.7677 11.8916 7.28105 11.1011 7.06578C10.9662 7.01223 10.8973 6.95122 10.8065 6.83804C10.7821 6.67415 10.773 6.57952 10.8719 6.44324C11.0358 6.31232 11.2205 6.25092 11.4147 6.17932C12.6494 5.69863 13.3992 4.8682 13.9497 3.67013C14.0142 3.52322 14.0781 3.37623 14.1396 3.22798C14.1915 3.12184 14.1915 3.12184 14.3124 3Z" fill="url(#paint1_linear_5983_36892)"/>
<path d="M10.2624 4.94948L13.7972 0.101227L12.4156 -0.90609L10.7105 -1.03377L10.2624 4.94948ZM10.6025 5.43685L16.4782 6.65144L16.7293 5.43685L16.4782 4.22225L10.6025 5.43685ZM10.2624 5.92422L11.9347 11.6865L13.1472 11.3346L14.1151 10.5239L10.2624 5.92422ZM9.84687 6.01179L9.01616 0.0695758L8.93756 0.0805638L8.85928 0.0936267L9.84687 6.01179ZM6.42671 8.15303L1.55858 4.64571L1.53082 4.68423L1.50368 4.7232L6.42671 8.15303ZM5.34356 11.5747L11.3436 11.5655L11.3436 11.565L5.34356 11.5747ZM5.34385 11.7679L-0.65614 11.7771L-0.656075 11.8193L-0.655417 11.8615L5.34385 11.7679ZM5.60801 13.2348L11.3492 11.4916L11.3112 11.3664L11.2678 11.243L5.60801 13.2348ZM5.66091 13.409L-0.0802851 15.1522L-0.0663481 15.1981L-0.0516787 15.2437L5.66091 13.409ZM8.50948 16.5854L5.747 21.9117L5.80214 21.9403L5.85786 21.9677L8.50948 16.5854ZM9.11395 16.8291L10.9811 11.127L10.958 11.1195L10.9349 11.1121L9.11395 16.8291ZM9.28183 16.8841L7.41472 22.5862L7.56419 22.6351L7.71602 22.6762L9.28183 16.8841ZM12.5594 16.7682L10.7578 11.0451L10.6686 11.0731L10.5804 11.104L12.5594 16.7682ZM12.7582 16.7056L14.5599 22.4287L14.6366 22.4046L14.7127 22.3784L12.7582 16.7056ZM15.8368 13.85L21.2252 16.4892L21.2446 16.4496L21.2634 16.4097L15.8368 13.85ZM16.2746 10.3508L10.3613 11.3674L10.3674 11.4028L10.3739 11.4382L16.2746 10.3508ZM16.3374 9.54903L13.2327 4.41476L11.9491 5.19092L11.1818 6.47977L16.3374 9.54903ZM16.8512 9.41933L18.6638 3.6997L17.681 3.38821L16.6505 3.42269L16.8512 9.41933ZM17.2139 9.76225L22.8337 7.66044L22.6028 7.04298L22.2433 6.49039L17.2139 9.76225ZM16.7038 14.4449L22.0827 17.1034L22.1481 16.9711L22.2069 16.8357L16.7038 14.4449ZM16.3074 15.0705L11.5539 11.4093L11.4261 11.5752L11.3102 11.7496L16.3074 15.0705ZM16.2636 15.3022L10.4292 16.7025L10.4981 16.9892L10.5947 17.2678L16.2636 15.3022ZM16.6672 15.8106L20.9224 11.5806L20.9021 11.5601L20.8816 11.5399L16.6672 15.8106ZM16.781 15.9251L12.5258 20.1551L12.5292 20.1585L16.781 15.9251ZM17.1551 16.2982L21.4022 12.06L21.3938 12.0516L21.3854 12.0433L17.1551 16.2982ZM17.4141 16.5581L13.1628 20.792L13.1646 20.7938L17.4141 16.5581ZM18.0976 17.2414L22.3359 12.9945L22.335 12.9935L18.0976 17.2414ZM19.1911 18.3358L14.9434 22.5734L14.946 22.576L19.1911 18.3358ZM19.5738 18.718L23.8165 14.4754L23.8101 14.469L19.5738 18.718ZM19.8079 18.9521L15.5646 23.1941L15.5717 23.2012L15.5788 23.2082L19.8079 18.9521ZM19.9159 19.0594L24.1634 14.8217L24.1542 14.8125L24.145 14.8033L19.9159 19.0594ZM20.3193 19.7419L26.3158 19.9474L26.3294 19.5525L26.291 19.1591L20.3193 19.7419ZM19.6332 20.7978L23.7055 25.2042L23.7917 25.1245L23.8747 25.0416L19.6332 20.7978ZM18.9446 20.9986L17.945 26.9148L18.3772 26.9878L18.8155 26.9973L18.9446 20.9986ZM18.3019 20.5453L22.7307 16.4974L22.7163 16.4816L22.7017 16.4659L18.3019 20.5453ZM18.1007 20.3285L13.6985 24.4053L13.7042 24.4114L18.1007 20.3285ZM17.7666 19.9655L22.1981 15.9205L22.1913 15.9131L17.7666 19.9655ZM17.0907 19.3122L13.0677 23.7637L13.1559 23.8434L13.2472 23.9196L17.0907 19.3122ZM16.7402 18.9442L21.2721 15.0121L21.2522 14.9891L21.232 14.9663L16.7402 18.9442ZM15.6772 17.8177L11.3904 22.0158L11.3978 22.0233L15.6772 17.8177ZM15.447 17.5808L19.7678 13.4177L19.7671 13.417L15.447 17.5808ZM15.1103 17.2358L10.7686 21.3771L10.8013 21.4113L10.8345 21.445L15.1103 17.2358ZM15.007 17.1276L19.3487 12.9863L19.3364 12.9735L19.3241 12.9607L15.007 17.1276ZM14.7355 16.89L18.4027 12.1411L16.4346 10.6214L13.9685 10.9393L14.7355 16.89ZM14.1235 17.1718L17.201 22.3224L17.2379 22.3004L17.2744 22.2778L14.1235 17.1718ZM10.7838 18.059L10.7804 12.059L10.7501 12.059L10.7197 12.0593L10.7838 18.059ZM10.5722 18.0612L10.5825 24.0612L10.6094 24.0612L10.6363 24.0609L10.5722 18.0612ZM6.12181 16.0942L1.85894 20.3166L1.89381 20.3518L1.92926 20.3864L6.12181 16.0942ZM4.31934 11.2694L-1.68029 11.202L-1.68073 11.2416L-1.68065 11.2812L4.31934 11.2694ZM5.8498 7.26448L10.5236 11.0268L10.5306 11.0181L10.5376 11.0094L5.8498 7.26448ZM5.97566 7.10695L1.38944 3.23828L1.33782 3.29946L1.28786 3.362L5.97566 7.10695ZM9.3784 5.05228L10.8968 10.857L10.9052 10.8548L10.9137 10.8525L9.3784 5.05228ZM9.49821 5.02057L8.06499 -0.805737L8.01386 -0.79316L7.96296 -0.779687L9.49821 5.02057ZM14.3124 3L14.6221 -2.992L11.9428 -3.13048L10.0532 -1.22604L14.3124 3ZM14.7025 3.15682L19.7728 -0.051265L19.4875 -0.502176L19.1271 -0.895665L14.7025 3.15682ZM14.9962 3.77294L9.44119 6.04047L9.4555 6.07555L9.47027 6.11045L14.9962 3.77294ZM15.5818 4.82764L20.3222 1.14948L20.3176 1.14364L20.3131 1.13781L15.5818 4.82764ZM15.6885 4.96518L10.9481 8.64334L11.0058 8.71765L11.0658 8.79011L15.6885 4.96518ZM17.7352 6.33544L19.8335 0.714279L19.8163 0.707862L19.799 0.701551L17.7352 6.33544ZM18.0601 6.53343L24.0122 5.77629L23.7549 3.7543L22.3193 2.30739L18.0601 6.53343ZM17.9909 6.93061L21.7509 11.6063L22.3426 11.1306L22.797 10.5225L17.9909 6.93061ZM17.5161 7.15787L15.5642 1.48423L15.4871 1.51076L15.4107 1.53939L17.5161 7.15787ZM16.4281 7.75185L19.8162 12.7037L19.869 12.6675L19.9211 12.6302L16.4281 7.75185ZM16.2736 7.85751L12.8855 2.9057L12.8024 2.96258L12.7212 3.02221L16.2736 7.85751ZM14.7353 10.1808L20.1774 12.7074L20.3047 12.4331L20.4038 12.1475L14.7353 10.1808ZM14.6751 10.3105L16.6222 15.9858L19.0406 15.1561L20.1172 12.837L14.6751 10.3105ZM14.3124 10.3715L10.5517 15.0466L12.1987 16.3715H14.3124V10.3715ZM13.9346 9.69752L19.5534 7.59302L19.5368 7.54869L19.5195 7.50462L13.9346 9.69752ZM13.2848 8.54383L8.56877 12.2531L8.60007 12.2929L8.63203 12.3322L13.2848 8.54383ZM13.1719 8.40033L17.888 4.69101L17.8418 4.63225L17.7941 4.57467L13.1719 8.40033ZM11.1011 7.06578L8.88801 12.6427L9.20033 12.7666L9.52453 12.8549L11.1011 7.06578ZM10.8065 6.83804L4.87184 7.7213L5.11088 9.3274L6.12728 10.5937L10.8065 6.83804ZM10.8719 6.44324L7.12807 1.75454L6.49227 2.2622L6.01463 2.92085L10.8719 6.44324ZM11.4147 6.17932L13.4895 11.8092L13.5407 11.7903L13.5916 11.7705L11.4147 6.17932ZM13.9497 3.67013L19.4017 6.17524L19.4228 6.1293L19.4432 6.083L13.9497 3.67013ZM14.1396 3.22798L8.75042 0.590342L8.66815 0.758427L8.59652 0.931313L14.1396 3.22798ZM10.2624 4.94948L6.72769 9.79773C6.72121 9.793 6.68731 9.76826 6.63879 9.73034C6.58967 9.69195 6.51156 9.62917 6.41709 9.54553C6.22273 9.37344 5.94237 9.09862 5.65879 8.71363C5.02832 7.8577 4.80672 7.03865 4.72668 6.65144L10.6025 5.43685L16.4782 4.22225C16.3465 3.58484 16.0571 2.59661 15.3206 1.5968C14.6773 0.723447 13.942 0.206783 13.7972 0.101227L10.2624 4.94948ZM10.6025 5.43685L4.72668 4.22225C4.77733 3.97723 4.87033 3.62346 5.04658 3.21541C5.23119 2.78805 5.46593 2.39624 5.73401 2.04867C5.98537 1.72277 6.21619 1.50133 6.32678 1.39959C6.4147 1.31871 6.49283 1.25499 6.40977 1.32455L10.2624 5.92422L14.1151 10.5239C14.1276 10.5134 14.2897 10.3796 14.4513 10.2309C14.6356 10.0614 14.9299 9.7744 15.236 9.37755C15.9547 8.44577 16.308 7.47512 16.4782 6.65144L10.6025 5.43685ZM10.2624 5.92422L8.59018 0.161966C8.52482 0.180934 8.53883 0.176702 8.56254 0.170216C8.6062 0.158271 8.70178 0.133005 8.8263 0.106764C8.94689 0.0813522 9.038 0.0669942 9.06732 0.0624988C9.08175 0.0602844 9.08604 0.0598078 9.01616 0.0695758L9.84687 6.01179L10.6776 11.954C11.1575 11.8869 11.4404 11.8299 11.9347 11.6865L10.2624 5.92422ZM9.84687 6.01179L8.85928 0.0936267C5.91872 0.58433 3.25789 2.28708 1.55858 4.64571L6.42671 8.15303L11.2948 11.6604C11.2166 11.7689 11.1547 11.8131 11.1231 11.8329C11.0918 11.8525 11.0053 11.9014 10.8345 11.93L9.84687 6.01179ZM6.42671 8.15303L1.50368 4.7232C0.105406 6.73021 -0.660508 9.05296 -0.656435 11.5843L5.34356 11.5747L11.3436 11.565C11.3435 11.5535 11.3439 11.5471 11.3441 11.5454C11.3442 11.5437 11.3441 11.5457 11.3433 11.5509C11.3425 11.5561 11.3412 11.5634 11.3392 11.5722C11.3371 11.5809 11.3346 11.59 11.3318 11.5989C11.3289 11.6079 11.3261 11.6154 11.3237 11.6213C11.3226 11.6241 11.3216 11.6263 11.3209 11.6279C11.3202 11.6295 11.3198 11.6303 11.3198 11.6303C11.3198 11.6303 11.3203 11.6293 11.3213 11.6275C11.3223 11.6257 11.3239 11.6229 11.3262 11.619C11.3307 11.6114 11.3383 11.5993 11.3497 11.5829L6.42671 8.15303ZM5.34356 11.5747L-0.656435 11.5838C-0.656338 11.6476 -0.65624 11.7114 -0.65614 11.7771L5.34385 11.7679L11.3438 11.7588C11.3437 11.6931 11.3436 11.6293 11.3436 11.5655L5.34356 11.5747ZM5.34385 11.7679L-0.655417 11.8615C-0.636928 13.0465 -0.436565 14.133 -0.0517397 15.2265L5.60801 13.2348L11.2678 11.243C11.2731 11.258 11.2976 11.3326 11.318 11.4455C11.3385 11.5593 11.3427 11.6442 11.3431 11.6743L5.34385 11.7679ZM5.60801 13.2348L-0.133176 14.978C-0.115722 15.0354 -0.098268 15.0929 -0.0802851 15.1522L5.66091 13.409L11.4021 11.6658C11.3841 11.6065 11.3667 11.549 11.3492 11.4916L5.60801 13.2348ZM5.66091 13.409L-0.0516787 15.2437C1.01228 18.5564 3.39892 20.6938 5.747 21.9117L8.50948 16.5854L11.272 11.2592C11.1304 11.1858 11.1163 11.1511 11.1655 11.2042C11.1917 11.2324 11.2308 11.2805 11.2718 11.3493C11.3134 11.4191 11.3484 11.4962 11.3735 11.5742L5.66091 13.409ZM8.50948 16.5854L5.85786 21.9677C6.3227 22.1967 6.79617 22.3879 7.29303 22.5461L9.11395 16.8291L10.9349 11.1121C10.968 11.1227 11.0077 11.1367 11.0509 11.1541C11.0941 11.1715 11.1315 11.1886 11.1611 11.2031L8.50948 16.5854ZM9.11395 16.8291L7.24684 22.5312C7.30224 22.5493 7.35764 22.5675 7.41472 22.5862L9.28183 16.8841L11.1489 11.182C11.0919 11.1633 11.0365 11.1452 10.9811 11.127L9.11395 16.8291ZM9.28183 16.8841L7.71602 22.6762C9.91931 23.2718 12.3717 23.1895 14.5385 22.4324L12.5594 16.7682L10.5804 11.104C10.6401 11.0831 10.6785 11.0751 10.6946 11.0722C10.7112 11.0692 10.7183 11.069 10.7191 11.069C10.7199 11.0689 10.726 11.0686 10.7407 11.0702C10.7549 11.0718 10.7906 11.0766 10.8476 11.092L9.28183 16.8841ZM12.5594 16.7682L14.3611 22.4913C14.4267 22.4707 14.4923 22.45 14.5599 22.4287L12.7582 16.7056L10.9566 10.9825C10.889 11.0038 10.8234 11.0244 10.7578 11.0451L12.5594 16.7682ZM12.7582 16.7056L14.7127 22.3784C17.9157 21.2748 20.0237 18.9422 21.2252 16.4892L15.8368 13.85L10.4484 11.2108C10.3914 11.3271 10.3748 11.3157 10.4469 11.2471C10.4833 11.2125 10.5355 11.17 10.603 11.1285C10.6712 11.0866 10.7405 11.0546 10.8038 11.0328L12.7582 16.7056ZM15.8368 13.85L21.2634 16.4097C22.3438 14.1192 22.6123 11.6354 22.1752 9.26334L16.2746 10.3508L10.3739 11.4382C10.378 11.4605 10.3727 11.4468 10.3777 11.4056C10.383 11.3626 10.3959 11.3206 10.4102 11.2903L15.8368 13.85ZM16.2746 10.3508L22.1878 9.33412C22.1566 9.15231 22.1631 9.18404 22.1711 9.2447C22.1781 9.29731 22.24 9.7321 22.1944 10.314C22.1376 11.0392 21.9454 11.6731 21.7161 12.1804C21.567 12.5101 21.3944 12.7839 21.4929 12.6183L16.3374 9.54903L11.1818 6.47977C11.1723 6.49578 11.1166 6.58873 11.0607 6.68772C11.0011 6.79338 10.894 6.98825 10.7816 7.23693C10.5114 7.83463 10.2958 8.55138 10.2311 9.37677C10.1777 10.0589 10.2473 10.6113 10.2755 10.824C10.3048 11.0448 10.3461 11.2791 10.3613 11.3674L16.2746 10.3508ZM16.3374 9.54903L19.4421 14.6833C19.0528 14.9187 18.5285 15.1591 17.8943 15.301C17.3765 15.4169 16.9646 15.4189 17.0519 15.416L16.8512 9.41933L16.6505 3.42269C16.0578 3.44252 14.713 3.51961 13.2327 4.41476L16.3374 9.54903ZM16.8512 9.41933L15.0385 15.139C14.6349 15.0111 14.1902 14.8173 13.742 14.5309C13.2917 14.2431 12.937 13.9251 12.667 13.6343C12.4148 13.3627 12.2521 13.1307 12.1927 13.0441C12.1603 12.997 12.0958 12.8978 12.1845 13.0341L17.2139 9.76225L22.2433 6.49039C22.2782 6.54413 22.1653 6.36829 22.0846 6.25077C21.9768 6.0938 21.7659 5.79772 21.4603 5.46862C20.7242 4.67597 19.7788 4.05305 18.6638 3.6997L16.8512 9.41933ZM17.2139 9.76225L11.594 11.8641C11.4991 11.6103 11.4736 11.4129 11.4671 11.3119C11.4609 11.2149 11.4708 11.1896 11.4618 11.2495C11.453 11.308 11.4315 11.4129 11.3851 11.563C11.3393 11.7114 11.2774 11.8776 11.2008 12.054L16.7038 14.4449L22.2069 16.8357C22.9487 15.1284 24.2494 11.4458 22.8337 7.66044L17.2139 9.76225ZM16.7038 14.4449L11.325 11.7863C11.4247 11.5846 11.5227 11.4498 11.5539 11.4093L16.3074 15.0705L21.0609 18.7317C21.3992 18.2924 21.7594 17.7575 22.0827 17.1034L16.7038 14.4449ZM16.3074 15.0705L11.3102 11.7496C11.3078 11.7533 11.2745 11.8032 11.2401 11.8564C11.2055 11.9101 11.1295 12.0293 11.0427 12.1828C10.8664 12.4946 10.5242 13.1545 10.3517 14.0665C10.1754 14.9984 10.2572 15.7595 10.3209 16.1638C10.3508 16.3535 10.3836 16.5036 10.3987 16.5713C10.4136 16.6379 10.4287 16.7003 10.4292 16.7025L16.2636 15.3022L22.0979 13.9019C22.0688 13.7809 22.1321 14.0258 22.1747 14.2964C22.2325 14.663 22.3134 15.3944 22.1425 16.2973C21.9755 17.1803 21.6452 17.812 21.4885 18.0891C21.3674 18.3033 21.2389 18.4901 21.3046 18.3913L16.3074 15.0705ZM16.2636 15.3022L10.5947 17.2678C10.9798 18.3785 11.5735 19.1413 11.9498 19.5646C12.1324 19.77 12.2946 19.9287 12.3709 20.0027C12.4072 20.0379 12.4484 20.0773 12.4556 20.0842C12.4718 20.0997 12.4657 20.094 12.4529 20.0813L16.6672 15.8106L20.8816 11.5399C20.8294 11.4884 20.7835 11.4443 20.7599 11.4217C20.7404 11.403 20.7437 11.4062 20.7316 11.3946C20.7254 11.3887 20.7242 11.3875 20.7255 11.3887C20.7273 11.3904 20.7485 11.411 20.7795 11.4428C20.8112 11.4751 20.8598 11.526 20.9185 11.5919C21.1508 11.8534 21.6215 12.4397 21.9324 13.3365L16.2636 15.3022ZM16.6672 15.8106L12.412 20.0406C12.4496 20.0784 12.4871 20.1162 12.5258 20.1551L16.781 15.9251L21.0362 11.695C20.9975 11.6561 20.96 11.6183 20.9224 11.5806L16.6672 15.8106ZM16.781 15.9251L12.5292 20.1585C12.6661 20.296 12.8019 20.431 12.9248 20.5531L17.1551 16.2982L21.3854 12.0433C21.2584 11.917 21.1445 11.8037 21.0328 11.6916L16.781 15.9251ZM17.1551 16.2982L12.908 20.5364C12.9929 20.6215 13.0778 20.7067 13.1628 20.792L17.4141 16.5581L21.6655 12.3242C21.5778 12.2361 21.49 12.1481 21.4022 12.06L17.1551 16.2982ZM17.4141 16.5581L13.1646 20.7938C13.3981 21.0281 13.6309 21.2605 13.8602 21.4893L18.0976 17.2414L22.335 12.9935C22.1082 12.7673 21.885 12.5444 21.6637 12.3223L17.4141 16.5581ZM18.0976 17.2414L13.8593 21.4884C14.219 21.8473 14.5788 22.208 14.9434 22.5734L19.1911 18.3358L23.4387 14.0982C23.0749 13.7335 22.7062 13.364 22.3359 12.9945L18.0976 17.2414ZM19.1911 18.3358L14.946 22.576C15.0781 22.7083 15.2095 22.8393 15.3375 22.967L19.5738 18.718L23.8101 14.469C23.6827 14.342 23.5588 14.2184 23.4362 14.0956L19.1911 18.3358ZM19.5738 18.718L15.3311 22.9606C15.409 23.0384 15.4868 23.1163 15.5646 23.1941L19.8079 18.9521L24.0511 14.71C23.9729 14.6318 23.8947 14.5536 23.8165 14.4754L19.5738 18.718ZM19.8079 18.9521L15.5788 23.2082C15.6322 23.2614 15.6323 23.2614 15.6868 23.3156L19.9159 19.0594L24.145 14.8033C24.0904 14.7491 24.0904 14.7491 24.037 14.6959L19.8079 18.9521ZM19.9159 19.0594L15.6684 23.2971C15.7959 23.425 15.7673 23.3978 15.7215 23.3482C15.677 23.2999 15.3774 22.9796 15.0813 22.4786C14.7189 21.8656 14.5205 21.2621 14.4178 20.7604C14.3512 20.4344 14.3295 20.1386 14.3477 20.3247L20.3193 19.7419L26.291 19.1591C26.289 19.1385 26.2792 19.0355 26.2664 18.9283C26.2528 18.8145 26.2258 18.6067 26.1744 18.3553C26.0516 17.7551 25.8242 17.0705 25.4114 16.3722C25.0648 15.7859 24.6934 15.3761 24.5429 15.213C24.3912 15.0484 24.2226 14.8809 24.1634 14.8217L19.9159 19.0594ZM20.3193 19.7419L14.3229 19.5364C14.3717 18.1106 14.9905 17.1043 15.365 16.6267C15.4506 16.5176 15.5229 16.4361 15.5685 16.3866C15.6135 16.3377 15.6434 16.3081 15.6436 16.3079C15.6444 16.3072 15.641 16.3105 15.6305 16.3207C15.6186 16.3323 15.6067 16.3438 15.5837 16.366C15.5464 16.402 15.4719 16.4738 15.3916 16.554L19.6332 20.7978L23.8747 25.0416C23.872 25.0442 23.8766 25.0395 23.9185 24.9991C23.9488 24.9698 24.0207 24.9006 24.0945 24.8275C24.2393 24.6838 24.5168 24.4028 24.8083 24.0311C25.4442 23.22 26.2509 21.8409 26.3158 19.9474L20.3193 19.7419ZM19.6332 20.7978L15.5609 16.3914C16.1344 15.8614 16.9388 15.3732 17.9282 15.1381C18.6696 14.962 19.2864 15.0046 19.0738 15L18.9446 20.9986L18.8155 26.9973C18.8895 26.9988 19.7423 27.0412 20.702 26.8132C21.9099 26.5262 22.9152 25.9345 23.7055 25.2042L19.6332 20.7978ZM18.9446 20.9986L19.9443 15.0825C20.4097 15.1611 20.8772 15.306 21.3264 15.5199C21.7689 15.7305 22.113 15.9698 22.3601 16.1697C22.5934 16.3584 22.7471 16.5185 22.7904 16.564C22.7979 16.5719 22.8627 16.6418 22.7307 16.4974L18.3019 20.5453L13.8731 24.5932C13.8976 24.6201 13.8804 24.6014 13.9354 24.6619C13.9689 24.6987 14.0278 24.7632 14.0978 24.8367C14.2338 24.9797 14.4803 25.2302 14.8125 25.4989C15.5757 26.1164 16.6187 26.6907 17.945 26.9148L18.9446 20.9986ZM18.3019 20.5453L22.7017 16.4659C22.6335 16.3923 22.5653 16.3188 22.4973 16.2456L18.1007 20.3285L13.7042 24.4114C13.7703 24.4827 13.8363 24.5538 13.9021 24.6247L18.3019 20.5453ZM18.1007 20.3285L22.503 16.2517C22.3959 16.1361 22.2952 16.0269 22.1981 15.9205L17.7666 19.9655L13.3352 24.0106C13.4598 24.1471 13.5821 24.2796 13.6985 24.4053L18.1007 20.3285ZM17.7666 19.9655L22.1913 15.9131C21.8491 15.5395 21.4364 15.1238 20.9341 14.7048L17.0907 19.3122L13.2472 23.9196C13.2322 23.907 13.2556 23.9237 13.342 24.018L17.7666 19.9655ZM17.0907 19.3122L21.1136 14.8607C21.1986 14.9375 21.2576 14.9986 21.2848 15.0276C21.3077 15.0521 21.3123 15.0584 21.2721 15.0121L16.7402 18.9442L12.2083 22.8764C12.3467 23.0359 12.6546 23.3903 13.0677 23.7637L17.0907 19.3122ZM16.7402 18.9442L21.232 14.9663C20.7826 14.4589 20.3358 13.9981 19.9566 13.6122L15.6772 17.8177L11.3978 22.0233C11.7428 22.3744 12.0123 22.6555 12.2484 22.9221L16.7402 18.9442ZM15.6772 17.8177L19.9639 13.6196C19.8986 13.553 19.8333 13.4857 19.7678 13.4177L15.447 17.5808L11.1263 21.7438C11.2136 21.8345 11.3016 21.9251 11.3904 22.0158L15.6772 17.8177ZM15.447 17.5808L19.7671 13.417C19.6331 13.278 19.5029 13.1453 19.3861 13.0266L15.1103 17.2358L10.8345 21.445C10.9431 21.5554 11.0378 21.6521 11.1269 21.7445L15.447 17.5808ZM15.1103 17.2358L19.4519 13.0945C19.4008 13.041 19.4008 13.041 19.3487 12.9863L15.007 17.1276L10.6654 21.2689C10.7175 21.3235 10.7175 21.3235 10.7686 21.3771L15.1103 17.2358ZM15.007 17.1276L19.3241 12.9607C18.957 12.5804 18.72 12.3862 18.4027 12.1411L14.7355 16.89L11.0684 21.6389C11.1199 21.6787 11.1211 21.6797 11.1146 21.6746C11.1018 21.6645 11.0331 21.6103 10.9428 21.5312C10.8413 21.4425 10.7603 21.3643 10.7072 21.3115C10.6748 21.2791 10.6495 21.2526 10.69 21.2945L15.007 17.1276ZM14.7355 16.89L13.9685 10.9393C12.9469 11.0709 12.1576 11.4076 11.6483 11.6724C11.409 11.7969 11.218 11.913 11.1178 11.9749C11.0674 12.006 11.0204 12.0357 11.0007 12.0481C10.9736 12.0652 10.9711 12.0667 10.9726 12.0657L14.1235 17.1718L17.2744 22.2778C17.3262 22.2459 17.3731 22.2163 17.3949 22.2026C17.4242 22.1841 17.4257 22.1833 17.4236 22.1845C17.42 22.1868 17.3252 22.2459 17.1842 22.3192C16.8715 22.4818 16.2877 22.7396 15.5025 22.8408L14.7355 16.89ZM14.1235 17.1718L11.046 12.0212C11.0287 12.0315 11.0167 12.0379 11.0095 12.0416C11.0023 12.0452 10.9988 12.0467 10.9986 12.0468C10.9984 12.0469 10.9998 12.0463 11.0025 12.0454C11.0051 12.0445 11.0071 12.0439 11.0079 12.0437C11.0207 12.0404 10.963 12.0589 10.7804 12.059L10.7838 18.059L10.7872 24.059C12.9521 24.0577 15.1076 23.5732 17.201 22.3224L14.1235 17.1718ZM10.7838 18.059L10.7197 12.0593C10.6499 12.06 10.5801 12.0608 10.5081 12.0616L10.5722 18.0612L10.6363 24.0609C10.7083 24.0601 10.7781 24.0594 10.8479 24.0586L10.7838 18.059ZM10.5722 18.0612L10.562 12.0612C10.5903 12.0612 10.6216 12.0647 10.6491 12.071C10.6755 12.0769 10.683 12.0818 10.6694 12.0756C10.6381 12.0612 10.5106 11.9938 10.3144 11.8021L6.12181 16.0942L1.92926 20.3864C3.97315 22.3829 6.91963 24.0675 10.5825 24.0612L10.5722 18.0612ZM6.12181 16.0942L10.3847 11.8719C10.3757 11.8628 10.3812 11.8671 10.3901 11.8815C10.3985 11.8951 10.3971 11.897 10.3897 11.876C10.3733 11.8294 10.3201 11.6469 10.3193 11.2576L4.31934 11.2694L-1.68065 11.2812C-1.67489 14.2066 -0.855965 17.5756 1.85894 20.3166L6.12181 16.0942ZM4.31934 11.2694L10.319 11.3367C10.3187 11.3622 10.3113 11.3715 10.3233 11.3412C10.3388 11.302 10.3895 11.1935 10.5236 11.0268L5.8498 7.26448L1.17597 3.50213C-0.424324 5.49012 -1.64554 8.107 -1.68029 11.202L4.31934 11.2694ZM5.8498 7.26448L10.5376 11.0094C10.5791 10.9574 10.6207 10.9054 10.6634 10.8519L5.97566 7.10695L1.28786 3.362C1.24507 3.41557 1.20354 3.46755 1.16201 3.51954L5.8498 7.26448ZM5.97566 7.10695L10.5619 10.9756C10.5335 11.0093 10.5225 11.0082 10.5643 10.9836C10.6113 10.9559 10.7168 10.9041 10.8968 10.857L9.3784 5.05228L7.86003 -0.752416C5.60947 -0.16372 3.22889 1.05764 1.38944 3.23828L5.97566 7.10695ZM9.3784 5.05228L10.9137 10.8525C10.973 10.8368 10.973 10.8368 11.0335 10.8208L9.49821 5.02057L7.96296 -0.779687C7.90246 -0.763674 7.90246 -0.763674 7.84316 -0.747977L9.3784 5.05228ZM9.49821 5.02057L10.9314 10.8469C10.8371 10.8701 10.6746 10.9042 10.4633 10.925C10.2464 10.9462 10.0268 10.9486 9.8144 10.9327L10.2624 4.94948L10.7105 -1.03377C9.70052 -1.1094 8.81962 -0.991368 8.06499 -0.805737L9.49821 5.02057ZM14.3124 3L14.0027 8.992C13.9974 8.99173 13.9569 8.98966 13.8988 8.98503C13.8396 8.98033 13.742 8.97144 13.6197 8.95476C13.3725 8.92106 12.9778 8.84971 12.512 8.68357C11.436 8.29974 10.7042 7.67477 10.2778 7.20931L14.7025 3.15682L19.1271 -0.895665C18.58 -1.49306 17.7407 -2.19191 16.5437 -2.6189C15.5637 -2.96846 14.6902 -2.98848 14.6221 -2.992L14.3124 3ZM14.7025 3.15682L9.63215 6.36491C9.50625 6.16593 9.43275 6.0108 9.40704 5.95461C9.39419 5.92653 9.38924 5.9141 9.39604 5.93035C9.40517 5.95215 9.41397 5.97379 9.44119 6.04047L14.9962 3.77294L20.5512 1.50541C20.5098 1.40389 20.2327 0.675657 19.7728 -0.051265L14.7025 3.15682ZM14.9962 3.77294L9.47027 6.11045C9.70262 6.65974 10.114 7.57312 10.8505 8.51746L15.5818 4.82764L20.3131 1.13781C20.5392 1.42774 20.6119 1.64754 20.5222 1.43543L14.9962 3.77294ZM15.5818 4.82764L10.8414 8.5058C10.8766 8.55119 10.9119 8.59658 10.9481 8.64334L15.6885 4.96518L20.4289 1.28703C20.3926 1.24026 20.3574 1.19487 20.3222 1.14948L15.5818 4.82764ZM15.6885 4.96518L11.0658 8.79011C12.474 10.4921 14.2072 11.4329 15.6714 11.9693L17.7352 6.33544L19.799 0.701551C19.6866 0.660371 19.985 0.74586 20.3113 1.14026L15.6885 4.96518ZM17.7352 6.33544L15.637 11.9566C15.7255 11.9896 15.6526 11.9633 15.5672 11.928C15.4561 11.8822 15.1611 11.7569 14.8066 11.5409C14.4208 11.3058 14.1344 11.0679 13.9545 10.9046C13.8325 10.7939 13.7307 10.6887 13.8009 10.7595L18.0601 6.53343L22.3193 2.30739C22.3105 2.29852 22.2732 2.26079 22.234 2.22215C22.1931 2.18177 22.1165 2.10696 22.0196 2.01897C21.7993 1.81908 21.4775 1.55353 21.0511 1.29369C20.656 1.05291 20.3151 0.905715 20.1429 0.834686C19.9964 0.774234 19.847 0.719327 19.8335 0.714279L17.7352 6.33544ZM18.0601 6.53343L12.1081 7.29057C12.1169 7.35982 12.0982 7.22685 12.0868 7.06167C12.0735 6.87092 12.058 6.50385 12.1124 6.04165C12.1701 5.55128 12.2965 5.03462 12.5121 4.51907C12.7213 4.01901 12.9703 3.62582 13.1848 3.33876L17.9909 6.93061L22.797 10.5225C23.3938 9.72396 23.8838 8.68759 24.0301 7.44426C24.0918 6.92021 24.0759 6.48947 24.0579 6.22997C24.0417 5.99603 24.0138 5.78922 24.0122 5.77629L18.0601 6.53343ZM17.9909 6.93061L14.2309 2.25488C14.6467 1.92052 15.0486 1.70593 15.3494 1.57363C15.4819 1.51535 15.5814 1.47905 15.6122 1.46798C15.6245 1.46356 15.6531 1.45366 15.5642 1.48423L17.5161 7.15787L19.468 12.8315C19.4687 12.8312 19.583 12.7924 19.6779 12.7582C19.7914 12.7174 19.9707 12.6505 20.181 12.558C20.6373 12.3572 21.187 12.0598 21.7509 11.6063L17.9909 6.93061ZM17.5161 7.15787L15.4107 1.53939C14.4092 1.91467 13.6093 2.39066 12.935 2.87346L16.4281 7.75185L19.9211 12.6302C19.9479 12.611 19.9207 12.6324 19.854 12.6692C19.7827 12.7086 19.7015 12.7464 19.6215 12.7764L17.5161 7.15787ZM16.4281 7.75185L13.0399 2.80004C12.9889 2.83491 12.938 2.86977 12.8855 2.9057L16.2736 7.85751L19.6618 12.8093C19.7143 12.7734 19.7652 12.7385 19.8162 12.7037L16.4281 7.75185ZM16.2736 7.85751L12.7212 3.02221C10.5298 4.63221 9.53914 6.85263 9.06676 8.21421L14.7353 10.1808L20.4038 12.1475C20.4551 11.9996 20.4714 11.9979 20.4173 12.0842C20.359 12.1772 20.181 12.4321 19.8261 12.6928L16.2736 7.85751ZM14.7353 10.1808L9.29317 7.65434C9.2733 7.69714 9.25343 7.73994 9.23295 7.78404L14.6751 10.3105L20.1172 12.837C20.1377 12.793 20.1576 12.7502 20.1774 12.7074L14.7353 10.1808ZM14.6751 10.3105L12.7279 4.63528C12.649 4.66236 12.7206 4.63704 12.8061 4.61074C12.9291 4.57292 13.1781 4.50126 13.5027 4.44674C13.8288 4.39196 14.0899 4.37822 14.224 4.37379C14.3168 4.37072 14.3959 4.37146 14.3124 4.37146V10.3715V16.3715C14.3214 16.3715 14.47 16.3722 14.6204 16.3672C14.8121 16.3609 15.119 16.3434 15.4905 16.281C15.8604 16.2188 16.1542 16.1357 16.3329 16.0808C16.4742 16.0373 16.6124 15.9892 16.6222 15.9858L14.6751 10.3105ZM14.3124 10.3715L18.0731 5.69628C18.8594 6.32883 19.2798 7.03847 19.4821 7.45784C19.5715 7.64327 19.622 7.78068 19.625 7.78886C19.6267 7.79344 19.6269 7.79393 19.6127 7.7548C19.6024 7.7263 19.5796 7.66284 19.5534 7.59302L13.9346 9.69752L8.31579 11.802C8.31343 11.7957 8.31342 11.7955 8.32577 11.8297C8.33429 11.8533 8.35684 11.916 8.38146 11.982C8.43034 12.1131 8.5286 12.3703 8.67344 12.6707C8.98653 13.3198 9.54823 14.2394 10.5517 15.0466L14.3124 10.3715ZM13.9346 9.69752L19.5195 7.50462C19.202 6.69601 18.7355 5.73543 17.9376 4.75546L13.2848 8.54383L8.63203 12.3322C8.54072 12.22 8.46276 12.1017 8.40354 11.9945C8.34935 11.8963 8.33201 11.8454 8.3497 11.8904L13.9346 9.69752ZM13.2848 8.54383L18.0008 4.83451C17.9636 4.78716 17.9263 4.73979 17.888 4.69101L13.1719 8.40033L8.4559 12.1097C8.49428 12.1584 8.53152 12.2058 8.56877 12.2531L13.2848 8.54383ZM13.1719 8.40033L17.7941 4.57467C16.4796 2.98653 14.658 1.81592 12.6778 1.27662L11.1011 7.06578L9.52453 12.8549C9.29304 12.7919 9.11936 12.7056 8.98761 12.6208C8.85583 12.5359 8.70425 12.4126 8.54978 12.226L13.1719 8.40033ZM11.1011 7.06578L13.3143 1.48886C13.6784 1.63335 14.1662 1.87662 14.6687 2.27573C15.1295 2.64164 15.4122 2.99086 15.4857 3.08234L10.8065 6.83804L6.12728 10.5937C6.67494 11.2761 7.53549 12.106 8.88801 12.6427L11.1011 7.06578ZM10.8065 6.83804L16.7411 5.95477C16.7126 5.76362 16.8512 6.46933 16.7536 7.3168C16.6231 8.44977 16.1761 9.34918 15.7291 9.96563L10.8719 6.44324L6.01463 2.92085C5.46877 3.67358 4.97695 4.68845 4.83237 5.94378C4.77055 6.48048 4.78911 6.92464 4.81174 7.20645C4.83249 7.46494 4.86608 7.68261 4.87184 7.7213L10.8065 6.83804ZM10.8719 6.44324L14.6157 11.1319C14.1871 11.4741 13.7978 11.6695 13.5813 11.7663C13.479 11.812 13.4062 11.8396 13.3959 11.8435C13.3899 11.8457 13.3906 11.8455 13.408 11.839C13.4135 11.837 13.4613 11.8196 13.4895 11.8092L11.4147 6.17932L9.33995 0.549462C9.31953 0.556989 9.3191 0.557086 9.27664 0.572655C9.2462 0.583818 9.19926 0.601092 9.14613 0.621208C9.04146 0.660846 8.87577 0.725352 8.68255 0.811759C8.28416 0.989915 7.7206 1.28141 7.12807 1.75454L10.8719 6.44324ZM11.4147 6.17932L13.5916 11.7705C16.568 10.6117 18.3445 8.4762 19.4017 6.17524L13.9497 3.67013L8.49771 1.16502C8.43315 1.30553 8.46731 1.18345 8.66121 0.986313C8.75708 0.888843 8.86741 0.798298 8.9839 0.722565C9.0988 0.647872 9.19031 0.606659 9.23785 0.588147L11.4147 6.17932ZM13.9497 3.67013L19.4432 6.083C19.5122 5.92586 19.5965 5.73257 19.6826 5.52464L14.1396 3.22798L8.59652 0.931313C8.55981 1.0199 8.5163 1.12058 8.45626 1.25726L13.9497 3.67013ZM14.1396 3.22798L19.5287 5.86562C19.5622 5.79708 19.5065 5.91406 19.437 6.04131C19.334 6.2297 19.1851 6.47609 18.9814 6.74476C18.8017 6.98173 18.6458 7.1475 18.5964 7.19967C18.556 7.24223 18.5222 7.27584 18.5716 7.22604L14.3124 3L10.0532 -1.22604C10.0422 -1.21492 9.96299 -1.13562 9.88703 -1.05547C9.80196 -0.965721 9.62015 -0.770472 9.41889 -0.504999C9.1936 -0.207839 9.02732 0.0660708 8.90601 0.288122C8.85381 0.38366 8.81381 0.462654 8.79241 0.505372C8.77228 0.54555 8.75351 0.584012 8.75042 0.590342L14.1396 3.22798Z" fill="url(#paint2_linear_5983_36892)" mask="url(#path-1-inside-1_5983_36892)"/>
<defs>
<linearGradient id="paint0_linear_5983_36892" x1="4.31934" y1="12" x2="20.3193" y2="12" gradientUnits="userSpaceOnUse">
<stop stop-color="#6F61EF"/>
<stop offset="1" stop-color="#36E1AE"/>
</linearGradient>
<linearGradient id="paint1_linear_5983_36892" x1="17.5527" y1="12" x2="4.31934" y2="12" gradientUnits="userSpaceOnUse">
<stop offset="0.51447" stop-color="#E19736"/>
<stop offset="1" stop-color="#6F61EF"/>
</linearGradient>
<linearGradient id="paint2_linear_5983_36892" x1="17.5527" y1="12" x2="4.31934" y2="12" gradientUnits="userSpaceOnUse">
<stop stop-color="#E19736"/>
<stop offset="1" stop-color="#6F61EF"/>
</linearGradient>
</defs>
</svg>
