<svg width="24" height="24" viewBox="0 0 24 24" fill="none" xmlns="http://www.w3.org/2000/svg">
<rect width="24" height="24" rx="12" fill="#151022" fill-opacity="0.05"/>
<path d="M15.6004 10.8665V11.8619C15.6004 12.7858 15.2211 13.672 14.546 14.3253C13.8708 14.9787 12.9552 15.3457 12.0004 15.3457M12.0004 15.3457C11.0456 15.3457 10.1299 14.9787 9.45481 14.3253C8.77968 13.672 8.40039 12.7858 8.40039 11.8619V10.8665M12.0004 15.3457V17.3365M9.94325 17.3365H14.0575M12.0004 6.38721C11.5912 6.38721 11.1988 6.54451 10.9094 6.82452C10.6201 7.10453 10.4575 7.4843 10.4575 7.88029V11.8619C10.4575 12.2579 10.6201 12.6376 10.9094 12.9176C11.1988 13.1976 11.5912 13.3549 12.0004 13.3549C12.4096 13.3549 12.802 13.1976 13.0914 12.9176C13.3807 12.6376 13.5432 12.2579 13.5432 11.8619V7.88029C13.5432 7.4843 13.3807 7.10453 13.0914 6.82452C12.802 6.54451 12.4096 6.38721 12.0004 6.38721Z" stroke="#151022" stroke-linecap="round" stroke-linejoin="round"/>
</svg>
