<svg width="15" height="15" viewBox="0 0 15 15" fill="none" xmlns="http://www.w3.org/2000/svg">
<path fill-rule="evenodd" clip-rule="evenodd" d="M9.66599 3.48406L9.78478 4.1968C9.82904 4.46239 10.0372 4.67052 10.3028 4.71482L11.0155 4.83358C11.068 4.84219 11.1091 4.88332 11.1177 4.93579C11.1288 5.00333 11.0831 5.06708 11.0155 5.07817L10.3028 5.19698C10.0372 5.24125 9.82904 5.44939 9.78478 5.71497L9.66599 6.42771C9.65739 6.48024 9.61622 6.5214 9.5637 6.53C9.49616 6.54106 9.43244 6.49526 9.42138 6.42771L9.30258 5.71497C9.25832 5.44937 9.05016 5.24124 8.78456 5.19698L8.07178 5.07817C8.01931 5.06955 7.97819 5.02843 7.96958 4.97596C7.95849 4.90842 8.00425 4.84467 8.07178 4.83358L8.78456 4.71482C9.05018 4.67055 9.25832 4.46241 9.30258 4.1968L9.42138 3.48406C9.42997 3.43154 9.47114 3.39037 9.52366 3.38177C9.59121 3.37072 9.65493 3.41651 9.66599 3.48406ZM6.3218 5.47881L6.55937 6.90424C6.64786 7.43541 7.0641 7.85166 7.59526 7.94023L9.02078 8.17775C9.12572 8.19499 9.20796 8.27724 9.2252 8.38216C9.24738 8.51723 9.15586 8.64472 9.02078 8.66691L7.59526 8.90452C7.06411 8.99308 6.64788 9.40931 6.55937 9.94048L6.3218 11.3659C6.30461 11.4709 6.22227 11.5533 6.11723 11.5705C5.98215 11.5926 5.8547 11.501 5.83258 11.3659L5.59502 9.94048C5.50648 9.40928 5.0902 8.99303 4.55898 8.90452L3.13351 8.66691C3.02858 8.64967 2.94633 8.56743 2.9291 8.46251C2.90691 8.32742 2.99843 8.19994 3.13351 8.17775L4.55898 7.94023C5.09021 7.85171 5.50649 7.43544 5.59502 6.90424L5.83258 5.47881C5.84978 5.37377 5.93212 5.29144 6.03714 5.27425C6.17224 5.25214 6.29969 5.34372 6.3218 5.47881Z" fill="url(#paint0_linear_5957_59201)"/>
<defs>
<linearGradient id="paint0_linear_5957_59201" x1="2.92578" y1="7.47694" x2="11.1194" y2="7.47694" gradientUnits="userSpaceOnUse">
<stop stop-color="#FB9649"/>
<stop offset="1" stop-color="#A361E9"/>
</linearGradient>
</defs>
</svg>
