<svg width="14" height="9" viewBox="0 0 14 9" fill="none" xmlns="http://www.w3.org/2000/svg">
<path d="M13.997 1.34719C13.9951 1.32721 13.9921 1.30749 13.9886 1.28805V1.28422C13.9847 1.26478 13.9801 1.24561 13.9746 1.22699L13.9732 1.22234C13.9678 1.20372 13.9612 1.18565 13.9541 1.16758L13.9516 1.16128C13.9445 1.14375 13.9365 1.12678 13.9278 1.11008C13.9278 1.10761 13.9253 1.10515 13.9239 1.10268C13.9152 1.08598 13.9056 1.06983 13.8966 1.05395L13.8919 1.0471C13.881 1.03067 13.8692 1.01479 13.8569 0.999458L13.8536 0.995077C13.8396 0.978101 13.8262 0.961947 13.8098 0.946614C13.7942 0.93128 13.778 0.916495 13.7613 0.902805L13.7569 0.899245C13.7416 0.886924 13.7257 0.87515 13.7093 0.864198L13.7022 0.859817C13.6863 0.849595 13.6701 0.840468 13.6537 0.832436L13.646 0.828603C13.6292 0.820024 13.6123 0.812083 13.5951 0.804782L13.5883 0.802318C13.57 0.795199 13.5517 0.788901 13.5335 0.783425L13.5286 0.781782C13.5099 0.77658 13.4908 0.771651 13.4716 0.768092H13.4672C13.4481 0.764532 13.4286 0.76152 13.4086 0.759604H13.4048C13.3851 0.757687 13.3654 0.756866 13.3451 0.756592H9.7503C9.57602 0.756592 9.40887 0.825826 9.28564 0.949063C9.1624 1.0723 9.09317 1.23945 9.09317 1.41373C9.09317 1.58801 9.1624 1.75516 9.28564 1.87839C9.40887 2.00163 9.57602 2.07087 9.7503 2.07087H11.7565L8.35854 5.46634L5.56571 2.67351C5.44248 2.55029 5.27534 2.48106 5.10106 2.48106C4.92679 2.48106 4.75965 2.55029 4.63641 2.67351L0.190608 7.12151C0.0673389 7.24474 -0.00192744 7.41189 -0.00195312 7.5862C-0.00197879 7.7605 0.0672383 7.92768 0.190471 8.05094C0.313704 8.17421 0.480858 8.24348 0.655162 8.24351C0.829465 8.24353 0.99664 8.17431 1.11991 8.05108L5.10216 4.06856L7.89499 6.86139C8.01822 6.98462 8.18536 7.05385 8.35964 7.05385C8.53391 7.05385 8.70105 6.98462 8.82429 6.86139L12.6858 2.9977V5.00361C12.6858 5.17789 12.755 5.34504 12.8783 5.46828C13.0015 5.59151 13.1686 5.66075 13.3429 5.66075C13.5172 5.66075 13.6844 5.59151 13.8076 5.46828C13.9308 5.34504 14.0001 5.17789 14.0001 5.00361V1.41126C14.0001 1.39073 14.0001 1.37074 13.9973 1.35075L13.997 1.34719Z" fill="url(#paint0_linear_5957_59354)"/>
<defs>
<linearGradient id="paint0_linear_5957_59354" x1="-0.00195312" y1="4.50005" x2="14.0001" y2="4.50005" gradientUnits="userSpaceOnUse">
<stop stop-color="#FB9649"/>
<stop offset="1" stop-color="#A361E9"/>
</linearGradient>
</defs>
</svg>
